<?xml version="1.0" standalone="no"?>
<!DOCTYPE svg PUBLIC "-//W3C//DTD SVG 20010904//EN"
 "http://www.w3.org/TR/2001/REC-SVG-20010904/DTD/svg10.dtd">
<svg version="1.0" xmlns="http://www.w3.org/2000/svg"
 width="500.000000pt" height="500.000000pt" viewBox="0 0 500.000000 500.000000"
 preserveAspectRatio="xMidYMid meet">
<metadata>
Created by potrace 1.14, written by Peter Selinger 2001-2017
</metadata>
<g transform="translate(0.000000,500.000000) scale(0.100000,-0.100000)"
fill="#000000" stroke="none">
<path d="M2260 4994 c-14 -3 -77 -11 -140 -19 -112 -15 -325 -63 -405 -90
-189 -66 -319 -125 -490 -221 -330 -185 -701 -555 -882 -877 -193 -344 -285
-624 -331 -1002 -11 -95 -7 -482 7 -565 7 -41 14 -93 17 -115 21 -167 138
-524 227 -689 180 -337 359 -564 617 -780 47 -39 87 -73 90 -76 6 -6 108 -77
144 -100 136 -87 356 -202 446 -233 25 -9 75 -27 112 -41 37 -14 77 -27 90
-30 13 -2 55 -13 93 -24 65 -19 105 -27 180 -39 17 -2 68 -11 115 -18 95 -16
625 -16 649 -1 7 5 30 10 50 11 76 6 130 17 251 50 181 51 305 97 454 170 174
87 230 120 366 216 128 90 364 309 450 418 19 24 46 57 60 75 43 54 140 195
172 251 42 74 168 337 188 390 40 112 52 147 55 166 2 10 13 51 24 91 22 83
38 162 46 228 3 25 10 72 15 105 13 78 12 480 0 570 -25 175 -41 254 -74 378
-52 190 -159 436 -273 625 -89 148 -256 359 -369 467 -76 72 -182 166 -219
194 -57 44 -233 162 -280 189 -63 35 -259 131 -270 132 -5 1 -19 7 -30 14 -30
18 -216 81 -325 109 -91 24 -179 41 -265 52 -22 3 -74 9 -115 15 -71 9 -396
12 -450 4z"/>
</g>
</svg>
